<svg height="24" viewBox="0 0 24 24" width="24" xmlns="http://www.w3.org/2000/svg"><g fill="#fff" transform="translate(4 2)"><path d="m15.9018 4.1305283-6.08144255 6.3448679c-.07946596.0829057-.17625745.1451698-.28259788.1824151l-4.24008936 1.4744151c-.17802978.0619245-.34759574-.1149811-.28824042-.300717l1.41324255-4.42347166c.0357-.11109434.09538085-.21207548.17484681-.29498114l3.84228935-4.00867924c-.9983702-.0285283-1.81093403-.0289434-2.11360637-.0289434-.72268085 0-4.33688085 0-6.50495958.38822642-.75027872.13433962-1.32071915.74716981-1.44575957 1.55275471-.36134043 2.32898114-.36134043 4.41679246-.36134043 5.19328301 0 .7764528 0 2.8640755.36134043 5.1930944.12504042.8055471.69548085 1.418415 1.44575957 1.5529056 2.16807873.3880377 5.78227873.3880377 6.50495958.3880377.01927872 0 .04850425-.0000377.07179787-.0000377l4.0694383 2.5940377c.1783553.1182642.4132447.0630189.5255894-.1234716.0519042-.0866038.068868-.1842642.0533149-.2778491l-1.4244554-5.0873208s.0831554-.0842641.1692766.0552831c.8705809 1.4104151 1.6308064 2.6356603 1.6308064 2.6356603.5025128-.0489811.9849511-.1084151 1.4092277-.1843396.7502425-.1344906 1.3207191-.7473585 1.4457595-1.5529056.3613405-2.3290189.3613405-4.4166416.3613405-5.1930944 0-2.33030187 0-2.86430187-.3613405-5.19328301-.0523383-.33716981-.1862404-.63720754-.3751574-.88588679z"/><path d="m8.66638298 9.52313208.13278085.13894339c.14131702.14739623.37056383.14739623.51184468 0l7.40006379-7.72056604-.9667936-.33626415-7.07789572 7.38430189c-.14131702.14739623-.14131702.38618868 0 .53358491z"/><path d="m7.37709574 8.17845283.13317873.1385283c.14128085.14743396.37016596.14743396.51144681 0l7.40006382-7.72033962-.9667574-.33630189-7.07793196 7.38430189c-.14128085.14739623-.14128085.38637736 0 .53381132z"/></g></svg>