<svg height="24" viewBox="0 0 24 24" width="24" xmlns="http://www.w3.org/2000/svg"><g fill="#fff" transform="translate(2 4)"><path d="m9.29851612 7.62824011c.00045143.00048218.00085771.00100821.00135427.00153423.19980019.24828292.42465441.47657697.67086097.68150682.02275176.01924368.04586464.03787367.06888724.05659133.0004515.00035068.0008577.00065752.001264.00100821.7936483.64477287 1.7590633 1.02215064 2.8440153 1.07238585l.0007223.00008767c.0394093.00184108.078954.00337532.1186793.00438353.0435624.00113972.0872151.00175341.1310484.00175341.0408087 0 .081482-.00048219.122065-.00153423.0138136-.00026302.0275368-.00100822.0412601-.00140273.0266792-.00083287.0533583-.00170958.0799472-.0029808.0166575-.00078904.0332248-.00192875.049792-.00289313.0235644-.00135889.0471738-.00263011.0706479-.00438352.0179215-.00127123.0357076-.00280546.0535388-.00429586.0219844-.00184108.0439236-.00359449.0658176-.00569858.0187793-.00179725.0373779-.00385751.056112-.00587393.0207655-.0022356.0416213-.00442736.0622965-.00692597.0193661-.00232327.0386419-.00486571.0578725-.00740816.0198627-.00258628.0397705-.0052164.059588-.00806569s.0395899-.00596159.0593622-.00898623c.0189598-.0029808.0379648-.00600543.0568794-.00916157.0203141-.00341915.0406733-.00701364.0609874-.0106958.0180118-.00328765.0360236-.00657529.0539903-.01003828.020946-.00403284.0418018-.00819719.0626576-.01240538.0170638-.00350682.0340825-.00714514.0510109-.01087114.0215781-.00464654.043111-.00942458.0644633-.01437797.0159804-.00368216.0318254-.00740816.0477607-.01126566.0223003-.00539174.0445104-.01082731.0667204-.01648206.0145359-.00372599.0290717-.00762733.0436075-.01148484.0232935-.00613693.0464967-.01240538.0696096-.01889299.0128656-.00363833.0256409-.00740816.0384613-.01109033.0246478-.00718898.0492052-.01437796.0736724-.02187379.010473-.00319998.0207655-.00657529.0312385-.00986294.0265889-.0083287.0531777-.01674507.0794958-.02555595.0069067-.00227944.0137232-.00469038.0205849-.00705748.0298842-.01003828.0595879-.02025189.089111-.03081619l.0002709-.00013151c2.0456723-.73538036 3.4431902-2.76810914 3.1326557-5.06963575-.2820045-2.0900653-2.0269382-3.77833659-4.1801847-4.04546868-2.8606277-.35493412-5.31384543 1.70514787-5.49504696 4.36805238-.11001198.05856391-.23623009.09209788-.37052868.09209788-.12043988 0-.23374726-.0274847-.33509192-.07535281-.57836422-1.61822254-2.25644204-2.73729295-4.16596487-2.5133386-1.68557147.19769703-3.07834943 1.48193871-3.3550271 3.10853379-.18616719 1.09439116.11199825 2.12074999.71947931 2.90912718v.01994504c.10915428.13352221.22751761.2598116.353826.37829832.70589146.69180811 1.68480405 1.12047314 2.76691213 1.12047314.47729042 0 .93449248-.08355001 1.35707033-.23609673.71406223-.23815698 1.33418315-.67177539 1.82912425-1.26675141.37454636-.08056921-.367775 1.39374217-1.95954059 1.89236828-1.66038202.51997392-3.1837569.31613992-4.5576202-.72757769v7.01364201c0 .5762583.3094059.8767052.90284767.8767052h13.99413893c.5934869 0 .9028477-.3004031.9028477-.8767052v-6.57528938c-1.4787291.95556488-2.8850949.98217288-4.6832515.41139393-1.93502824-.61443887-2.83755992-2.43027077-2.38229898-2.33115924zm-2.14864203-1.44634448c0 .43817728-.36569846.79306756-.81658058.79306756-.45115299 0-.81676115-.35484645-.81676115-.79306756 0-.43778277.36560816-.79306757.81676115-.79306757.45088212 0 .81658058.3552848.81658058.79306757zm-3.75575604-.51716843c0-.26835947.22426736-.4863084.50103531-.4863084.27685824 0 .50121589.21794893.50121589.4863084 0 .26892934-.22435765.48665909-.50121589.48665909-.27676795.00004383-.50103531-.21772975-.50103531-.48665909zm2.45574567-2.33506058c.4510627 0 .81676115.35519713.81676115.79333057 0 .43747592-.36569845.79284839-.81676115.79284839s-.81671601-.35537247-.81671601-.79284839c-.00004514-.43808961.36560817-.79333057.81671601-.79333057zm-.04148585 4.49473628c0 .43795811-.36565331.79315524-.81680629.79315524-.45101756 0-.81676115-.35519713-.81676115-.79315524 0-.43778276.36578874-.79293606.81676115-.79293606.45115298 0 .81680629.35519713.81680629.79293606zm-1.91250223-5.40918369c.45101756 0 .81676115.35497796.81676115.79306757 0 .43800194-.36578874.79337441-.81676115.79337441-.45115298 0-.81676115-.35537247-.81676115-.79337441 0-.43808961.36560817-.79306757.81676115-.79306757zm-.27482683 5.40918369c0 .43795811-.36578874.79315524-.81676115.79315524-.45119812 0-.81676115-.35519713-.81676115-.79315524 0-.43778276.36556303-.79293606.81676115-.79293606.45097241 0 .81676115.35519713.81676115.79293606zm-1.68760287-4.49473628c.4510627 0 .81676115.35497795.81676115.79284839 0 .43800194-.3657436.79289222-.81676115.79289222-.45115299 0-.81685144-.35489028-.81685144-.79289222 0-.4378266.36569845-.79284839.81685144-.79284839zm-.47918641 2.05530394c.45124327 0 .81689658.35506562.81689658.79306756 0 .43778277-.36569845.79289223-.81689658.79289223-.45097241 0-.81662572-.3551533-.81662572-.79289223 0-.43800194.36565331-.79306756.81662572-.79306756zm15.71496657-.26244172c.1833684.73752829-.4834749 1.38523813-1.2430406 1.2074423-.3558574-.083287-.6478835-.36606827-.7347826-.71135863-.1859866-.73897485.4837006-1.38957782 1.2449366-1.20928338.3556317.08425137.6469807.36769018.7328866.71319971zm-1.84682-3.28562824c.7599269-.17810267 1.427041.47008935 1.2432212 1.20805599-.0860865.34564104-.3777514.62899218-.7336088.71289287-.7611458.17946156-1.4298399-.47052771-1.2443047-1.20919571.0867637-.34542187.3787446-.62833465.7346923-.71175315zm.1714056 5.33663633c.1836392.73765979-.4831138 1.3855888-1.2429955 1.20792449-.3559477-.08324317-.6480641-.36606828-.734918-.71144631-.1858964-.73906252.4834298-1.38957781 1.2446658-1.20954639.3557671.08411987.6472515.367471.7332477.71306821zm-2.3584638-1.84226457c-.3456553 0-.625854-.27208547-.625854-.60755673 0-.33555893.2801536-.60777591.625854-.60777591.3456552 0 .625854.27221698.625854.60777591 0 .33547126-.2802439.60755673-.625854.60755673zm-.2541968-4.636105c.7603332-.1787602 1.4285759.46991401 1.2441693 1.20805599-.0863574.34564104-.3782029.62899218-.7341506.7128052-.7604235.17906704-1.4284856-.47000168-1.2441241-1.20827517.0863122-.34564104.3781577-.62890451.7341054-.71258602zm-.1193564 6.47705451c.1848129.7385365-.4830235 1.38760523-1.2435824 1.20897654-.3559026-.08359385-.6478384-.36663814-.7343763-.71214768-.1848129-.7379228.4823012-1.38725454 1.2430406-1.20915187.3562186.08337467.6484252.3665943.7349181.71232301zm-2.3325973-5.33492676c.7605137-.17985608 1.4295239.46894964 1.2451172 1.20783682-.0862671.34564104-.3781126.62899218-.7340603.71262986-.7601526.17867253-1.42785356-.46925648-1.24425949-1.20726696.0859511-.34559721.37743549-.62903601.73320259-.71319972zm-.5970983 2.5664231c.7606492-.17893554 1.4285307.47048387 1.2438081 1.20871352-.0864477.34555338-.3783383.62872917-.734286.71232302-.7602429.17858486-1.42835018-.47022086-1.24385326-1.20840668.08640252-.34559721.37829318-.62886067.73433116-.71262986z"/><path d="m18.8527143 9.06149113-1.8527143 1.17904637v4.3979498l1.8632143 1.2287433c.4484571.2411395 1.1367857.1703325 1.1367857-.3491533v-5.71733478c0-.51961778-.6931286-.96860447-1.1472857-.73925139z"/></g></svg>