<svg height="24" viewBox="0 0 24 24" width="24" xmlns="http://www.w3.org/2000/svg"><g fill="none" fill-rule="evenodd"><path d="m0 0h24v24h-24z"/><path d="m14.25 0h-7.939275c-.1990125 0-.3898125.080142-.5304375.222642l-5.560575 5.634716c-.140625.1425-.2197125.335844-.2197125.53751v11.845132c0 .417848.3374625.76.75.76h13.5c.414225 0 .75-.34029.75-.76v-17.48c0-.41971-.335775-.76-.75-.76zm-1.125 17.1h-11.25v-10.149116l-1.18065-.354312c-.1279125-.04142-.0819375-.136572-.0819375-.136572h5.3875875c.207075 0 .375-.170164.375-.38v-5.459042s.0940875-.041648.1349625.08778l.34935 1.191262h6.2656875z" fill="#fff" fill-rule="nonzero" transform="translate(5 3)"/></g></svg>